<?xml version="1.0" encoding="utf-8" standalone="no"?>
<!DOCTYPE svg PUBLIC "-//W3C//DTD SVG 1.1//EN"
  "http://www.w3.org/Graphics/SVG/1.1/DTD/svg11.dtd">
<svg xmlns:xlink="http://www.w3.org/1999/xlink" width="752.127345pt" height="618.760781pt" viewBox="0 0 752.127345 618.760781" xmlns="http://www.w3.org/2000/svg" version="1.1">
 <metadata>
  <rdf:RDF xmlns:dc="http://purl.org/dc/elements/1.1/" xmlns:cc="http://creativecommons.org/ns#" xmlns:rdf="http://www.w3.org/1999/02/22-rdf-syntax-ns#">
   <cc:Work>
    <dc:type rdf:resource="http://purl.org/dc/dcmitype/StillImage"/>
    <dc:date>2025-09-04T17:37:44.217873</dc:date>
    <dc:format>image/svg+xml</dc:format>
    <dc:creator>
     <cc:Agent>
      <dc:title>Matplotlib v3.9.4, https://matplotlib.org/</dc:title>
     </cc:Agent>
    </dc:creator>
   </cc:Work>
  </rdf:RDF>
 </metadata>
 <defs>
  <style type="text/css">*{stroke-linejoin: round; stroke-linecap: butt}</style>
 </defs>
 <g id="figure_1">
  <g id="patch_1">
   <path d="M 0 618.760781 
L 752.127345 618.760781 
L 752.127345 0 
L 0 0 
z
" style="fill: #ffffff"/>
  </g>
  <g id="axes_1">
   <g id="patch_2">
    <path d="M 584.107345 334.360781 
C 584.107345 297.959211 576.937029 261.9116 563.006751 228.280934 
C 549.076474 194.650268 528.657142 164.090579 502.917345 138.350782 
C 477.177547 112.610984 446.617858 92.191653 412.987192 78.261375 
C 379.356527 64.331097 343.308916 57.160781 306.907345 57.160781 
C 270.505775 57.160781 234.458164 64.331097 200.827498 78.261375 
C 167.196832 92.191653 136.637143 112.610984 110.897345 138.350782 
C 85.157548 164.090579 64.738217 194.650268 50.807939 228.280934 
C 36.877661 261.9116 29.707345 297.959211 29.707345 334.360781 
C 29.707345 370.762352 36.877661 406.809963 50.807939 440.440629 
C 64.738217 474.071295 85.157548 504.630984 110.897345 530.370781 
C 136.637143 556.110578 167.196832 576.52991 200.827498 590.460188 
C 234.458164 604.390466 270.505775 611.560781 306.907345 611.560781 
C 343.308916 611.560781 379.356527 604.390466 412.987192 590.460188 
C 446.617858 576.52991 477.177547 556.110578 502.917345 530.370781 
C 528.657142 504.630984 549.076474 474.071295 563.006751 440.440629 
C 576.937029 406.809963 584.107345 370.762352 584.107345 334.360781 
M 306.907345 334.360781 
C 306.907345 334.360781 306.907345 334.360781 306.907345 334.360781 
C 306.907345 334.360781 306.907345 334.360781 306.907345 334.360781 
C 306.907345 334.360781 306.907345 334.360781 306.907345 334.360781 
C 306.907345 334.360781 306.907345 334.360781 306.907345 334.360781 
C 306.907345 334.360781 306.907345 334.360781 306.907345 334.360781 
C 306.907345 334.360781 306.907345 334.360781 306.907345 334.360781 
C 306.907345 334.360781 306.907345 334.360781 306.907345 334.360781 
C 306.907345 334.360781 306.907345 334.360781 306.907345 334.360781 
C 306.907345 334.360781 306.907345 334.360781 306.907345 334.360781 
C 306.907345 334.360781 306.907345 334.360781 306.907345 334.360781 
C 306.907345 334.360781 306.907345 334.360781 306.907345 334.360781 
C 306.907345 334.360781 306.907345 334.360781 306.907345 334.360781 
C 306.907345 334.360781 306.907345 334.360781 306.907345 334.360781 
C 306.907345 334.360781 306.907345 334.360781 306.907345 334.360781 
C 306.907345 334.360781 306.907345 334.360781 306.907345 334.360781 
C 306.907345 334.360781 306.907345 334.360781 306.907345 334.360781 
z
" style="fill: #ffffff"/>
   </g>
   <g id="patch_3">
    <path d="M 306.907345 64.40108 
L 431.837845 293.768401 
L 324.538271 358.627669 
L 186.193939 500.508531 
L 79.905578 260.603436 
z
" clip-path="url(#paeeb3e0106)" style="fill: #440154; opacity: 0.1; stroke: #440154; stroke-linejoin: miter"/>
   </g>
   <g id="patch_4">
    <path d="M 306.907345 264.026453 
L 347.239239 321.256155 
L 314.810863 345.239041 
L 275.599451 377.452401 
L 246.089015 314.599708 
z
" clip-path="url(#paeeb3e0106)" style="fill: #3b528b; opacity: 0.1; stroke: #3b528b; stroke-linejoin: miter"/>
   </g>
   <g id="patch_5">
    <path d="M 306.907345 65.435408 
L 505.6157 269.796523 
L 345.816974 387.915291 
L 163.100304 532.294192 
L 60.379138 254.258911 
z
" clip-path="url(#paeeb3e0106)" style="fill: #21918c; opacity: 0.1; stroke: #21918c; stroke-linejoin: miter"/>
   </g>
   <g id="patch_6">
    <path d="M 306.907345 68.538393 
L 519.387566 265.321773 
L 348.248826 391.262448 
L 162.371037 533.297943 
L 62.949198 255.093974 
z
" clip-path="url(#paeeb3e0106)" style="fill: #5ec962; opacity: 0.1; stroke: #5ec962; stroke-linejoin: miter"/>
   </g>
   <g id="patch_7">
    <path d="M 306.907345 57.160781 
L 537.956374 259.288401 
L 352.065103 396.515103 
L 152.539501 546.829892 
L 47.280422 250.00288 
z
" clip-path="url(#paeeb3e0106)" style="fill: #fde725; opacity: 0.1; stroke: #fde725; stroke-linejoin: miter"/>
   </g>
   <g id="matplotlib.axis_1">
    <g id="xtick_1">
     <g id="line2d_1">
      <path d="M 306.907345 334.360781 
L 306.907345 57.160781 
" clip-path="url(#paeeb3e0106)" style="fill: none; stroke: #b0b0b0; stroke-width: 0.8; stroke-linecap: square"/>
     </g>
     <g id="text_1">
      <!-- Validity -->
      <g transform="translate(286.713751 46.196094) scale(0.11 -0.11)">
       <defs>
        <path id="DejaVuSans-56" d="M 1831 0 
L 50 4666 
L 709 4666 
L 2188 738 
L 3669 4666 
L 4325 4666 
L 2547 0 
L 1831 0 
z
" transform="scale(0.015625)"/>
        <path id="DejaVuSans-61" d="M 2194 1759 
Q 1497 1759 1228 1600 
Q 959 1441 959 1056 
Q 959 750 1161 570 
Q 1363 391 1709 391 
Q 2188 391 2477 730 
Q 2766 1069 2766 1631 
L 2766 1759 
L 2194 1759 
z
M 3341 1997 
L 3341 0 
L 2766 0 
L 2766 531 
Q 2569 213 2275 61 
Q 1981 -91 1556 -91 
Q 1019 -91 701 211 
Q 384 513 384 1019 
Q 384 1609 779 1909 
Q 1175 2209 1959 2209 
L 2766 2209 
L 2766 2266 
Q 2766 2663 2505 2880 
Q 2244 3097 1772 3097 
Q 1472 3097 1187 3025 
Q 903 2953 641 2809 
L 641 3341 
Q 956 3463 1253 3523 
Q 1550 3584 1831 3584 
Q 2591 3584 2966 3190 
Q 3341 2797 3341 1997 
z
" transform="scale(0.015625)"/>
        <path id="DejaVuSans-6c" d="M 603 4863 
L 1178 4863 
L 1178 0 
L 603 0 
L 603 4863 
z
" transform="scale(0.015625)"/>
        <path id="DejaVuSans-69" d="M 603 3500 
L 1178 3500 
L 1178 0 
L 603 0 
L 603 3500 
z
M 603 4863 
L 1178 4863 
L 1178 4134 
L 603 4134 
L 603 4863 
z
" transform="scale(0.015625)"/>
        <path id="DejaVuSans-64" d="M 2906 2969 
L 2906 4863 
L 3481 4863 
L 3481 0 
L 2906 0 
L 2906 525 
Q 2725 213 2448 61 
Q 2172 -91 1784 -91 
Q 1150 -91 751 415 
Q 353 922 353 1747 
Q 353 2572 751 3078 
Q 1150 3584 1784 3584 
Q 2172 3584 2448 3432 
Q 2725 3281 2906 2969 
z
M 947 1747 
Q 947 1113 1208 752 
Q 1469 391 1925 391 
Q 2381 391 2643 752 
Q 2906 1113 2906 1747 
Q 2906 2381 2643 2742 
Q 2381 3103 1925 3103 
Q 1469 3103 1208 2742 
Q 947 2381 947 1747 
z
" transform="scale(0.015625)"/>
        <path id="DejaVuSans-74" d="M 1172 4494 
L 1172 3500 
L 2356 3500 
L 2356 3053 
L 1172 3053 
L 1172 1153 
Q 1172 725 1289 603 
Q 1406 481 1766 481 
L 2356 481 
L 2356 0 
L 1766 0 
Q 1100 0 847 248 
Q 594 497 594 1153 
L 594 3053 
L 172 3053 
L 172 3500 
L 594 3500 
L 594 4494 
L 1172 4494 
z
" transform="scale(0.015625)"/>
        <path id="DejaVuSans-79" d="M 2059 -325 
Q 1816 -950 1584 -1140 
Q 1353 -1331 966 -1331 
L 506 -1331 
L 506 -850 
L 844 -850 
Q 1081 -850 1212 -737 
Q 1344 -625 1503 -206 
L 1606 56 
L 191 3500 
L 800 3500 
L 1894 763 
L 2988 3500 
L 3597 3500 
L 2059 -325 
z
" transform="scale(0.015625)"/>
       </defs>
       <use xlink:href="#DejaVuSans-56"/>
       <use xlink:href="#DejaVuSans-61" x="60.658203"/>
       <use xlink:href="#DejaVuSans-6c" x="121.9375"/>
       <use xlink:href="#DejaVuSans-69" x="149.720703"/>
       <use xlink:href="#DejaVuSans-64" x="177.503906"/>
       <use xlink:href="#DejaVuSans-69" x="240.980469"/>
       <use xlink:href="#DejaVuSans-74" x="268.763672"/>
       <use xlink:href="#DejaVuSans-79" x="307.972656"/>
      </g>
     </g>
    </g>
    <g id="xtick_2">
     <g id="line2d_2">
      <path d="M 306.907345 334.360781 
L 570.540211 248.70127 
" clip-path="url(#paeeb3e0106)" style="fill: none; stroke: #b0b0b0; stroke-width: 0.8; stroke-linecap: square"/>
     </g>
     <g id="text_2">
      <!-- Inchikey Acc -->
      <g transform="translate(549.621799 247.410345) scale(0.11 -0.11)">
       <defs>
        <path id="DejaVuSans-49" d="M 628 4666 
L 1259 4666 
L 1259 0 
L 628 0 
L 628 4666 
z
" transform="scale(0.015625)"/>
        <path id="DejaVuSans-6e" d="M 3513 2113 
L 3513 0 
L 2938 0 
L 2938 2094 
Q 2938 2591 2744 2837 
Q 2550 3084 2163 3084 
Q 1697 3084 1428 2787 
Q 1159 2491 1159 1978 
L 1159 0 
L 581 0 
L 581 3500 
L 1159 3500 
L 1159 2956 
Q 1366 3272 1645 3428 
Q 1925 3584 2291 3584 
Q 2894 3584 3203 3211 
Q 3513 2838 3513 2113 
z
" transform="scale(0.015625)"/>
        <path id="DejaVuSans-63" d="M 3122 3366 
L 3122 2828 
Q 2878 2963 2633 3030 
Q 2388 3097 2138 3097 
Q 1578 3097 1268 2742 
Q 959 2388 959 1747 
Q 959 1106 1268 751 
Q 1578 397 2138 397 
Q 2388 397 2633 464 
Q 2878 531 3122 666 
L 3122 134 
Q 2881 22 2623 -34 
Q 2366 -91 2075 -91 
Q 1284 -91 818 406 
Q 353 903 353 1747 
Q 353 2603 823 3093 
Q 1294 3584 2113 3584 
Q 2378 3584 2631 3529 
Q 2884 3475 3122 3366 
z
" transform="scale(0.015625)"/>
        <path id="DejaVuSans-68" d="M 3513 2113 
L 3513 0 
L 2938 0 
L 2938 2094 
Q 2938 2591 2744 2837 
Q 2550 3084 2163 3084 
Q 1697 3084 1428 2787 
Q 1159 2491 1159 1978 
L 1159 0 
L 581 0 
L 581 4863 
L 1159 4863 
L 1159 2956 
Q 1366 3272 1645 3428 
Q 1925 3584 2291 3584 
Q 2894 3584 3203 3211 
Q 3513 2838 3513 2113 
z
" transform="scale(0.015625)"/>
        <path id="DejaVuSans-6b" d="M 581 4863 
L 1159 4863 
L 1159 1991 
L 2875 3500 
L 3609 3500 
L 1753 1863 
L 3688 0 
L 2938 0 
L 1159 1709 
L 1159 0 
L 581 0 
L 581 4863 
z
" transform="scale(0.015625)"/>
        <path id="DejaVuSans-65" d="M 3597 1894 
L 3597 1613 
L 953 1613 
Q 991 1019 1311 708 
Q 1631 397 2203 397 
Q 2534 397 2845 478 
Q 3156 559 3463 722 
L 3463 178 
Q 3153 47 2828 -22 
Q 2503 -91 2169 -91 
Q 1331 -91 842 396 
Q 353 884 353 1716 
Q 353 2575 817 3079 
Q 1281 3584 2069 3584 
Q 2775 3584 3186 3129 
Q 3597 2675 3597 1894 
z
M 3022 2063 
Q 3016 2534 2758 2815 
Q 2500 3097 2075 3097 
Q 1594 3097 1305 2825 
Q 1016 2553 972 2059 
L 3022 2063 
z
" transform="scale(0.015625)"/>
        <path id="DejaVuSans-20" transform="scale(0.015625)"/>
        <path id="DejaVuSans-41" d="M 2188 4044 
L 1331 1722 
L 3047 1722 
L 2188 4044 
z
M 1831 4666 
L 2547 4666 
L 4325 0 
L 3669 0 
L 3244 1197 
L 1141 1197 
L 716 0 
L 50 0 
L 1831 4666 
z
" transform="scale(0.015625)"/>
       </defs>
       <use xlink:href="#DejaVuSans-49"/>
       <use xlink:href="#DejaVuSans-6e" x="29.492188"/>
       <use xlink:href="#DejaVuSans-63" x="92.871094"/>
       <use xlink:href="#DejaVuSans-68" x="147.851562"/>
       <use xlink:href="#DejaVuSans-69" x="211.230469"/>
       <use xlink:href="#DejaVuSans-6b" x="239.013672"/>
       <use xlink:href="#DejaVuSans-65" x="293.298828"/>
       <use xlink:href="#DejaVuSans-79" x="354.822266"/>
       <use xlink:href="#DejaVuSans-20" x="414.001953"/>
       <use xlink:href="#DejaVuSans-41" x="445.789062"/>
       <use xlink:href="#DejaVuSans-63" x="512.447266"/>
       <use xlink:href="#DejaVuSans-63" x="567.427734"/>
      </g>
     </g>
    </g>
    <g id="xtick_3">
     <g id="line2d_3">
      <path d="M 306.907345 334.360781 
L 469.841417 558.620292 
" clip-path="url(#paeeb3e0106)" style="fill: none; stroke: #b0b0b0; stroke-width: 0.8; stroke-linecap: square"/>
     </g>
     <g id="text_3">
      <!-- Perfect Match -->
      <g transform="translate(440.277676 572.981843) scale(0.11 -0.11)">
       <defs>
        <path id="DejaVuSans-50" d="M 1259 4147 
L 1259 2394 
L 2053 2394 
Q 2494 2394 2734 2622 
Q 2975 2850 2975 3272 
Q 2975 3691 2734 3919 
Q 2494 4147 2053 4147 
L 1259 4147 
z
M 628 4666 
L 2053 4666 
Q 2838 4666 3239 4311 
Q 3641 3956 3641 3272 
Q 3641 2581 3239 2228 
Q 2838 1875 2053 1875 
L 1259 1875 
L 1259 0 
L 628 0 
L 628 4666 
z
" transform="scale(0.015625)"/>
        <path id="DejaVuSans-72" d="M 2631 2963 
Q 2534 3019 2420 3045 
Q 2306 3072 2169 3072 
Q 1681 3072 1420 2755 
Q 1159 2438 1159 1844 
L 1159 0 
L 581 0 
L 581 3500 
L 1159 3500 
L 1159 2956 
Q 1341 3275 1631 3429 
Q 1922 3584 2338 3584 
Q 2397 3584 2469 3576 
Q 2541 3569 2628 3553 
L 2631 2963 
z
" transform="scale(0.015625)"/>
        <path id="DejaVuSans-66" d="M 2375 4863 
L 2375 4384 
L 1825 4384 
Q 1516 4384 1395 4259 
Q 1275 4134 1275 3809 
L 1275 3500 
L 2222 3500 
L 2222 3053 
L 1275 3053 
L 1275 0 
L 697 0 
L 697 3053 
L 147 3053 
L 147 3500 
L 697 3500 
L 697 3744 
Q 697 4328 969 4595 
Q 1241 4863 1831 4863 
L 2375 4863 
z
" transform="scale(0.015625)"/>
        <path id="DejaVuSans-4d" d="M 628 4666 
L 1569 4666 
L 2759 1491 
L 3956 4666 
L 4897 4666 
L 4897 0 
L 4281 0 
L 4281 4097 
L 3078 897 
L 2444 897 
L 1241 4097 
L 1241 0 
L 628 0 
L 628 4666 
z
" transform="scale(0.015625)"/>
       </defs>
       <use xlink:href="#DejaVuSans-50"/>
       <use xlink:href="#DejaVuSans-65" x="56.677734"/>
       <use xlink:href="#DejaVuSans-72" x="118.201172"/>
       <use xlink:href="#DejaVuSans-66" x="159.314453"/>
       <use xlink:href="#DejaVuSans-65" x="194.519531"/>
       <use xlink:href="#DejaVuSans-63" x="256.042969"/>
       <use xlink:href="#DejaVuSans-74" x="311.023438"/>
       <use xlink:href="#DejaVuSans-20" x="350.232422"/>
       <use xlink:href="#DejaVuSans-4d" x="382.019531"/>
       <use xlink:href="#DejaVuSans-61" x="468.298828"/>
       <use xlink:href="#DejaVuSans-74" x="529.578125"/>
       <use xlink:href="#DejaVuSans-63" x="568.787109"/>
       <use xlink:href="#DejaVuSans-68" x="623.767578"/>
      </g>
     </g>
    </g>
    <g id="xtick_4">
     <g id="line2d_4">
      <path d="M 306.907345 334.360781 
L 143.973273 558.620292 
" clip-path="url(#paeeb3e0106)" style="fill: none; stroke: #b0b0b0; stroke-width: 0.8; stroke-linecap: square"/>
     </g>
     <g id="text_4">
      <!-- Tanimoto Sim -->
      <g transform="translate(98.539358 572.981843) scale(0.11 -0.11)">
       <defs>
        <path id="DejaVuSans-54" d="M -19 4666 
L 3928 4666 
L 3928 4134 
L 2272 4134 
L 2272 0 
L 1638 0 
L 1638 4134 
L -19 4134 
L -19 4666 
z
" transform="scale(0.015625)"/>
        <path id="DejaVuSans-6d" d="M 3328 2828 
Q 3544 3216 3844 3400 
Q 4144 3584 4550 3584 
Q 5097 3584 5394 3201 
Q 5691 2819 5691 2113 
L 5691 0 
L 5113 0 
L 5113 2094 
Q 5113 2597 4934 2840 
Q 4756 3084 4391 3084 
Q 3944 3084 3684 2787 
Q 3425 2491 3425 1978 
L 3425 0 
L 2847 0 
L 2847 2094 
Q 2847 2600 2669 2842 
Q 2491 3084 2119 3084 
Q 1678 3084 1418 2786 
Q 1159 2488 1159 1978 
L 1159 0 
L 581 0 
L 581 3500 
L 1159 3500 
L 1159 2956 
Q 1356 3278 1631 3431 
Q 1906 3584 2284 3584 
Q 2666 3584 2933 3390 
Q 3200 3197 3328 2828 
z
" transform="scale(0.015625)"/>
        <path id="DejaVuSans-6f" d="M 1959 3097 
Q 1497 3097 1228 2736 
Q 959 2375 959 1747 
Q 959 1119 1226 758 
Q 1494 397 1959 397 
Q 2419 397 2687 759 
Q 2956 1122 2956 1747 
Q 2956 2369 2687 2733 
Q 2419 3097 1959 3097 
z
M 1959 3584 
Q 2709 3584 3137 3096 
Q 3566 2609 3566 1747 
Q 3566 888 3137 398 
Q 2709 -91 1959 -91 
Q 1206 -91 779 398 
Q 353 888 353 1747 
Q 353 2609 779 3096 
Q 1206 3584 1959 3584 
z
" transform="scale(0.015625)"/>
        <path id="DejaVuSans-53" d="M 3425 4513 
L 3425 3897 
Q 3066 4069 2747 4153 
Q 2428 4238 2131 4238 
Q 1616 4238 1336 4038 
Q 1056 3838 1056 3469 
Q 1056 3159 1242 3001 
Q 1428 2844 1947 2747 
L 2328 2669 
Q 3034 2534 3370 2195 
Q 3706 1856 3706 1288 
Q 3706 609 3251 259 
Q 2797 -91 1919 -91 
Q 1588 -91 1214 -16 
Q 841 59 441 206 
L 441 856 
Q 825 641 1194 531 
Q 1563 422 1919 422 
Q 2459 422 2753 634 
Q 3047 847 3047 1241 
Q 3047 1584 2836 1778 
Q 2625 1972 2144 2069 
L 1759 2144 
Q 1053 2284 737 2584 
Q 422 2884 422 3419 
Q 422 4038 858 4394 
Q 1294 4750 2059 4750 
Q 2388 4750 2728 4690 
Q 3069 4631 3425 4513 
z
" transform="scale(0.015625)"/>
       </defs>
       <use xlink:href="#DejaVuSans-54"/>
       <use xlink:href="#DejaVuSans-61" x="44.583984"/>
       <use xlink:href="#DejaVuSans-6e" x="105.863281"/>
       <use xlink:href="#DejaVuSans-69" x="169.242188"/>
       <use xlink:href="#DejaVuSans-6d" x="197.025391"/>
       <use xlink:href="#DejaVuSans-6f" x="294.4375"/>
       <use xlink:href="#DejaVuSans-74" x="355.619141"/>
       <use xlink:href="#DejaVuSans-6f" x="394.828125"/>
       <use xlink:href="#DejaVuSans-20" x="456.009766"/>
       <use xlink:href="#DejaVuSans-53" x="487.796875"/>
       <use xlink:href="#DejaVuSans-69" x="551.273438"/>
       <use xlink:href="#DejaVuSans-6d" x="579.056641"/>
      </g>
     </g>
    </g>
    <g id="xtick_5">
     <g id="line2d_5">
      <path d="M 306.907345 334.360781 
L 43.274479 248.70127 
" clip-path="url(#paeeb3e0106)" style="fill: none; stroke: #b0b0b0; stroke-width: 0.8; stroke-linecap: square"/>
     </g>
     <g id="text_5">
      <!-- Mcs Sim -->
      <g transform="translate(7.2 247.410345) scale(0.11 -0.11)">
       <defs>
        <path id="DejaVuSans-73" d="M 2834 3397 
L 2834 2853 
Q 2591 2978 2328 3040 
Q 2066 3103 1784 3103 
Q 1356 3103 1142 2972 
Q 928 2841 928 2578 
Q 928 2378 1081 2264 
Q 1234 2150 1697 2047 
L 1894 2003 
Q 2506 1872 2764 1633 
Q 3022 1394 3022 966 
Q 3022 478 2636 193 
Q 2250 -91 1575 -91 
Q 1294 -91 989 -36 
Q 684 19 347 128 
L 347 722 
Q 666 556 975 473 
Q 1284 391 1588 391 
Q 1994 391 2212 530 
Q 2431 669 2431 922 
Q 2431 1156 2273 1281 
Q 2116 1406 1581 1522 
L 1381 1569 
Q 847 1681 609 1914 
Q 372 2147 372 2553 
Q 372 3047 722 3315 
Q 1072 3584 1716 3584 
Q 2034 3584 2315 3537 
Q 2597 3491 2834 3397 
z
" transform="scale(0.015625)"/>
       </defs>
       <use xlink:href="#DejaVuSans-4d"/>
       <use xlink:href="#DejaVuSans-63" x="86.279297"/>
       <use xlink:href="#DejaVuSans-73" x="141.259766"/>
       <use xlink:href="#DejaVuSans-20" x="193.359375"/>
       <use xlink:href="#DejaVuSans-53" x="225.146484"/>
       <use xlink:href="#DejaVuSans-69" x="288.623047"/>
       <use xlink:href="#DejaVuSans-6d" x="316.40625"/>
      </g>
     </g>
    </g>
   </g>
   <g id="matplotlib.axis_2">
    <g id="ytick_1">
     <g id="line2d_6">
      <path d="M 306.907345 278.920781 
C 314.187659 278.920781 321.397181 280.354844 328.123315 283.1409 
C 334.849448 285.926956 340.961386 290.010822 346.109345 295.158781 
C 351.257304 300.306741 355.341171 306.418679 358.127226 313.144812 
C 360.913282 319.870945 362.347345 327.080467 362.347345 334.360781 
C 362.347345 341.641095 360.913282 348.850618 358.127226 355.576751 
C 355.341171 362.302884 351.257304 368.414822 346.109345 373.562781 
C 340.961386 378.710741 334.849448 382.794607 328.123315 385.580663 
C 321.397181 388.366718 314.187659 389.800781 306.907345 389.800781 
C 299.627031 389.800781 292.417509 388.366718 285.691376 385.580663 
C 278.965242 382.794607 272.853305 378.710741 267.705345 373.562781 
C 262.557386 368.414822 258.473519 362.302884 255.687464 355.576751 
C 252.901408 348.850618 251.467345 341.641095 251.467345 334.360781 
C 251.467345 327.080467 252.901408 319.870945 255.687464 313.144812 
C 258.473519 306.418679 262.557386 300.306741 267.705345 295.158781 
C 272.853305 290.010822 278.965242 285.926956 285.691376 283.1409 
C 292.417509 280.354844 299.627031 278.920781 306.907345 278.920781 
" clip-path="url(#paeeb3e0106)" style="fill: none; stroke: #b0b0b0; stroke-width: 0.8; stroke-linecap: square"/>
     </g>
     <g id="text_6">
      <!-- 0.2 -->
      <g style="fill: #808080" transform="translate(306.907345 276.841094) scale(0.1 -0.1)">
       <defs>
        <path id="DejaVuSans-30" d="M 2034 4250 
Q 1547 4250 1301 3770 
Q 1056 3291 1056 2328 
Q 1056 1369 1301 889 
Q 1547 409 2034 409 
Q 2525 409 2770 889 
Q 3016 1369 3016 2328 
Q 3016 3291 2770 3770 
Q 2525 4250 2034 4250 
z
M 2034 4750 
Q 2819 4750 3233 4129 
Q 3647 3509 3647 2328 
Q 3647 1150 3233 529 
Q 2819 -91 2034 -91 
Q 1250 -91 836 529 
Q 422 1150 422 2328 
Q 422 3509 836 4129 
Q 1250 4750 2034 4750 
z
" transform="scale(0.015625)"/>
        <path id="DejaVuSans-2e" d="M 684 794 
L 1344 794 
L 1344 0 
L 684 0 
L 684 794 
z
" transform="scale(0.015625)"/>
        <path id="DejaVuSans-32" d="M 1228 531 
L 3431 531 
L 3431 0 
L 469 0 
L 469 531 
Q 828 903 1448 1529 
Q 2069 2156 2228 2338 
Q 2531 2678 2651 2914 
Q 2772 3150 2772 3378 
Q 2772 3750 2511 3984 
Q 2250 4219 1831 4219 
Q 1534 4219 1204 4116 
Q 875 4013 500 3803 
L 500 4441 
Q 881 4594 1212 4672 
Q 1544 4750 1819 4750 
Q 2544 4750 2975 4387 
Q 3406 4025 3406 3419 
Q 3406 3131 3298 2873 
Q 3191 2616 2906 2266 
Q 2828 2175 2409 1742 
Q 1991 1309 1228 531 
z
" transform="scale(0.015625)"/>
       </defs>
       <use xlink:href="#DejaVuSans-30"/>
       <use xlink:href="#DejaVuSans-2e" x="63.623047"/>
       <use xlink:href="#DejaVuSans-32" x="95.410156"/>
      </g>
     </g>
    </g>
    <g id="ytick_2">
     <g id="line2d_7">
      <path d="M 306.907345 223.480781 
C 321.467973 223.480781 335.887018 226.348908 349.339284 231.921019 
C 362.79155 237.49313 375.015426 245.660862 385.311345 255.956781 
C 395.607264 266.2527 403.774996 278.476576 409.347108 291.928842 
C 414.919219 305.381109 417.787345 319.800153 417.787345 334.360781 
C 417.787345 348.921409 414.919219 363.340454 409.347108 376.79272 
C 403.774996 390.244987 395.607264 402.468862 385.311345 412.764781 
C 375.015426 423.0607 362.79155 431.228433 349.339284 436.800544 
C 335.887018 442.372655 321.467973 445.240781 306.907345 445.240781 
C 292.346717 445.240781 277.927672 442.372655 264.475406 436.800544 
C 251.02314 431.228433 238.799264 423.0607 228.503345 412.764781 
C 218.207426 402.468862 210.039694 390.244987 204.467582 376.79272 
C 198.895471 363.340454 196.027345 348.921409 196.027345 334.360781 
C 196.027345 319.800153 198.895471 305.381109 204.467582 291.928842 
C 210.039694 278.476576 218.207426 266.2527 228.503345 255.956781 
C 238.799264 245.660862 251.02314 237.49313 264.475406 231.921019 
C 277.927672 226.348908 292.346717 223.480781 306.907345 223.480781 
" clip-path="url(#paeeb3e0106)" style="fill: none; stroke: #b0b0b0; stroke-width: 0.8; stroke-linecap: square"/>
     </g>
     <g id="text_7">
      <!-- 0.4 -->
      <g style="fill: #808080" transform="translate(306.907345 221.401094) scale(0.1 -0.1)">
       <defs>
        <path id="DejaVuSans-34" d="M 2419 4116 
L 825 1625 
L 2419 1625 
L 2419 4116 
z
M 2253 4666 
L 3047 4666 
L 3047 1625 
L 3713 1625 
L 3713 1100 
L 3047 1100 
L 3047 0 
L 2419 0 
L 2419 1100 
L 313 1100 
L 313 1709 
L 2253 4666 
z
" transform="scale(0.015625)"/>
       </defs>
       <use xlink:href="#DejaVuSans-30"/>
       <use xlink:href="#DejaVuSans-2e" x="63.623047"/>
       <use xlink:href="#DejaVuSans-34" x="95.410156"/>
      </g>
     </g>
    </g>
    <g id="ytick_3">
     <g id="line2d_8">
      <path d="M 306.907345 168.040781 
C 328.748287 168.040781 350.376854 172.342971 370.555254 180.701137 
C 390.733653 189.059304 409.069466 201.310903 424.513345 216.754781 
C 439.957223 232.19866 452.208822 250.534473 460.566989 270.712873 
C 468.925156 290.891272 473.227345 312.519839 473.227345 334.360781 
C 473.227345 356.201724 468.925156 377.83029 460.566989 398.00869 
C 452.208822 418.187089 439.957223 436.522903 424.513345 451.966781 
C 409.069466 467.410659 390.733653 479.662258 370.555254 488.020425 
C 350.376854 496.378592 328.748287 500.680781 306.907345 500.680781 
C 285.066403 500.680781 263.437836 496.378592 243.259437 488.020425 
C 223.081037 479.662258 204.745224 467.410659 189.301345 451.966781 
C 173.857467 436.522903 161.605868 418.187089 153.247701 398.00869 
C 144.889534 377.83029 140.587345 356.201724 140.587345 334.360781 
C 140.587345 312.519839 144.889534 290.891272 153.247701 270.712873 
C 161.605868 250.534473 173.857467 232.19866 189.301345 216.754781 
C 204.745224 201.310903 223.081037 189.059304 243.259437 180.701137 
C 263.437836 172.342971 285.066403 168.040781 306.907345 168.040781 
" clip-path="url(#paeeb3e0106)" style="fill: none; stroke: #b0b0b0; stroke-width: 0.8; stroke-linecap: square"/>
     </g>
     <g id="text_8">
      <!-- 0.6 -->
      <g style="fill: #808080" transform="translate(306.907345 165.961094) scale(0.1 -0.1)">
       <defs>
        <path id="DejaVuSans-36" d="M 2113 2584 
Q 1688 2584 1439 2293 
Q 1191 2003 1191 1497 
Q 1191 994 1439 701 
Q 1688 409 2113 409 
Q 2538 409 2786 701 
Q 3034 994 3034 1497 
Q 3034 2003 2786 2293 
Q 2538 2584 2113 2584 
z
M 3366 4563 
L 3366 3988 
Q 3128 4100 2886 4159 
Q 2644 4219 2406 4219 
Q 1781 4219 1451 3797 
Q 1122 3375 1075 2522 
Q 1259 2794 1537 2939 
Q 1816 3084 2150 3084 
Q 2853 3084 3261 2657 
Q 3669 2231 3669 1497 
Q 3669 778 3244 343 
Q 2819 -91 2113 -91 
Q 1303 -91 875 529 
Q 447 1150 447 2328 
Q 447 3434 972 4092 
Q 1497 4750 2381 4750 
Q 2619 4750 2861 4703 
Q 3103 4656 3366 4563 
z
" transform="scale(0.015625)"/>
       </defs>
       <use xlink:href="#DejaVuSans-30"/>
       <use xlink:href="#DejaVuSans-2e" x="63.623047"/>
       <use xlink:href="#DejaVuSans-36" x="95.410156"/>
      </g>
     </g>
    </g>
    <g id="ytick_4">
     <g id="line2d_9">
      <path d="M 306.907345 112.600781 
C 336.028601 112.600781 364.86669 118.337034 391.771223 129.481256 
C 418.675756 140.625478 443.123507 156.960944 463.715345 177.552781 
C 484.307183 198.144619 500.642648 222.592371 511.78687 249.496903 
C 522.931093 276.401436 528.667345 305.239525 528.667345 334.360781 
C 528.667345 363.482038 522.931093 392.320126 511.78687 419.224659 
C 500.642648 446.129192 484.307183 470.576943 463.715345 491.168781 
C 443.123507 511.760619 418.675756 528.096084 391.771223 539.240306 
C 364.86669 550.384529 336.028601 556.120781 306.907345 556.120781 
C 277.786089 556.120781 248.948 550.384529 222.043467 539.240306 
C 195.138934 528.096084 170.691183 511.760619 150.099345 491.168781 
C 129.507507 470.576943 113.172042 446.129192 102.02782 419.224659 
C 90.883598 392.320126 85.147345 363.482038 85.147345 334.360781 
C 85.147345 305.239525 90.883598 276.401436 102.02782 249.496903 
C 113.172042 222.592371 129.507507 198.144619 150.099345 177.552781 
C 170.691183 156.960944 195.138934 140.625478 222.043467 129.481256 
C 248.948 118.337034 277.786089 112.600781 306.907345 112.600781 
" clip-path="url(#paeeb3e0106)" style="fill: none; stroke: #b0b0b0; stroke-width: 0.8; stroke-linecap: square"/>
     </g>
     <g id="text_9">
      <!-- 0.8 -->
      <g style="fill: #808080" transform="translate(306.907345 110.521094) scale(0.1 -0.1)">
       <defs>
        <path id="DejaVuSans-38" d="M 2034 2216 
Q 1584 2216 1326 1975 
Q 1069 1734 1069 1313 
Q 1069 891 1326 650 
Q 1584 409 2034 409 
Q 2484 409 2743 651 
Q 3003 894 3003 1313 
Q 3003 1734 2745 1975 
Q 2488 2216 2034 2216 
z
M 1403 2484 
Q 997 2584 770 2862 
Q 544 3141 544 3541 
Q 544 4100 942 4425 
Q 1341 4750 2034 4750 
Q 2731 4750 3128 4425 
Q 3525 4100 3525 3541 
Q 3525 3141 3298 2862 
Q 3072 2584 2669 2484 
Q 3125 2378 3379 2068 
Q 3634 1759 3634 1313 
Q 3634 634 3220 271 
Q 2806 -91 2034 -91 
Q 1263 -91 848 271 
Q 434 634 434 1313 
Q 434 1759 690 2068 
Q 947 2378 1403 2484 
z
M 1172 3481 
Q 1172 3119 1398 2916 
Q 1625 2713 2034 2713 
Q 2441 2713 2670 2916 
Q 2900 3119 2900 3481 
Q 2900 3844 2670 4047 
Q 2441 4250 2034 4250 
Q 1625 4250 1398 4047 
Q 1172 3844 1172 3481 
z
" transform="scale(0.015625)"/>
       </defs>
       <use xlink:href="#DejaVuSans-30"/>
       <use xlink:href="#DejaVuSans-2e" x="63.623047"/>
       <use xlink:href="#DejaVuSans-38" x="95.410156"/>
      </g>
     </g>
    </g>
    <g id="ytick_5">
     <g id="line2d_10">
      <path d="M 306.907345 57.160781 
C 343.308916 57.160781 379.356527 64.331097 412.987192 78.261375 
C 446.617858 92.191653 477.177547 112.610984 502.917345 138.350782 
C 528.657142 164.090579 549.076474 194.650268 563.006751 228.280934 
C 576.937029 261.9116 584.107345 297.959211 584.107345 334.360781 
C 584.107345 370.762352 576.937029 406.809963 563.006751 440.440629 
C 549.076474 474.071295 528.657142 504.630984 502.917345 530.370781 
C 477.177547 556.110578 446.617858 576.52991 412.987192 590.460188 
C 379.356527 604.390466 343.308916 611.560781 306.907345 611.560781 
C 270.505775 611.560781 234.458164 604.390466 200.827498 590.460188 
C 167.196832 576.52991 136.637143 556.110578 110.897345 530.370781 
C 85.157548 504.630984 64.738217 474.071295 50.807939 440.440629 
C 36.877661 406.809963 29.707345 370.762352 29.707345 334.360781 
C 29.707345 297.959211 36.877661 261.9116 50.807939 228.280934 
C 64.738217 194.650268 85.157548 164.090579 110.897345 138.350782 
C 136.637143 112.610984 167.196832 92.191653 200.827498 78.261375 
C 234.458164 64.331097 270.505775 57.160781 306.907345 57.160781 
" clip-path="url(#paeeb3e0106)" style="fill: none; stroke: #b0b0b0; stroke-width: 0.8; stroke-linecap: square"/>
     </g>
     <g id="text_10">
      <!-- 1.0 -->
      <g style="fill: #808080" transform="translate(306.907345 55.081094) scale(0.1 -0.1)">
       <defs>
        <path id="DejaVuSans-31" d="M 794 531 
L 1825 531 
L 1825 4091 
L 703 3866 
L 703 4441 
L 1819 4666 
L 2450 4666 
L 2450 531 
L 3481 531 
L 3481 0 
L 794 0 
L 794 531 
z
" transform="scale(0.015625)"/>
       </defs>
       <use xlink:href="#DejaVuSans-31"/>
       <use xlink:href="#DejaVuSans-2e" x="63.623047"/>
       <use xlink:href="#DejaVuSans-30" x="95.410156"/>
      </g>
     </g>
    </g>
   </g>
   <g id="line2d_11">
    <path d="M 306.907345 64.40108 
L 431.837845 293.768401 
L 324.538271 358.627669 
L 186.193939 500.508531 
L 79.905578 260.603436 
L 306.907345 64.40108 
" clip-path="url(#paeeb3e0106)" style="fill: none; stroke: #440154; stroke-width: 2; stroke-linecap: square"/>
   </g>
   <g id="line2d_12">
    <path d="M 306.907345 264.026453 
L 347.239239 321.256155 
L 314.810863 345.239041 
L 275.599451 377.452401 
L 246.089015 314.599708 
L 306.907345 264.026453 
" clip-path="url(#paeeb3e0106)" style="fill: none; stroke: #3b528b; stroke-width: 2; stroke-linecap: square"/>
   </g>
   <g id="line2d_13">
    <path d="M 306.907345 65.435408 
L 505.6157 269.796523 
L 345.816974 387.915291 
L 163.100304 532.294192 
L 60.379138 254.258911 
L 306.907345 65.435408 
" clip-path="url(#paeeb3e0106)" style="fill: none; stroke: #21918c; stroke-width: 2; stroke-linecap: square"/>
   </g>
   <g id="line2d_14">
    <path d="M 306.907345 68.538393 
L 519.387566 265.321773 
L 348.248826 391.262448 
L 162.371037 533.297943 
L 62.949198 255.093974 
L 306.907345 68.538393 
" clip-path="url(#paeeb3e0106)" style="fill: none; stroke: #5ec962; stroke-width: 2; stroke-linecap: square"/>
   </g>
   <g id="line2d_15">
    <path d="M 306.907345 57.160781 
L 537.956374 259.288401 
L 352.065103 396.515103 
L 152.539501 546.829892 
L 47.280422 250.00288 
L 306.907345 57.160781 
" clip-path="url(#paeeb3e0106)" style="fill: none; stroke: #fde725; stroke-width: 2; stroke-linecap: square"/>
   </g>
   <g id="patch_8">
    <path d="M 306.907345 57.160781 
C 270.505775 57.160781 234.458164 64.331097 200.827498 78.261375 
C 167.196832 92.191653 136.637143 112.610984 110.897345 138.350782 
C 85.157548 164.090579 64.738217 194.650268 50.807939 228.280934 
C 36.877661 261.9116 29.707345 297.959211 29.707345 334.360781 
C 29.707345 370.762352 36.877661 406.809963 50.807939 440.440629 
C 64.738217 474.071295 85.157548 504.630984 110.897345 530.370781 
C 136.637143 556.110578 167.196832 576.52991 200.827498 590.460188 
C 234.458164 604.390466 270.505775 611.560781 306.907345 611.560781 
C 343.308916 611.560781 379.356527 604.390466 412.987192 590.460188 
C 446.617858 576.52991 477.177547 556.110578 502.917345 530.370781 
C 528.657142 504.630984 549.076474 474.071295 563.006751 440.440629 
C 576.937029 406.809963 584.107345 370.762352 584.107345 334.360781 
C 584.107345 297.959211 576.937029 261.9116 563.006751 228.280934 
C 549.076474 194.650268 528.657142 164.090579 502.917345 138.350782 
C 477.177547 112.610984 446.617858 92.191653 412.987192 78.261375 
C 379.356527 64.331097 343.308916 57.160781 306.907345 57.160781 
" style="fill: none; stroke: #000000; stroke-width: 0.8; stroke-linejoin: miter; stroke-linecap: square"/>
   </g>
   <g id="text_11">
    <!-- acs - Model Performance Radar -->
    <g transform="translate(197.717189 17.837813) scale(0.14 -0.14)">
     <defs>
      <path id="DejaVuSans-2d" d="M 313 2009 
L 1997 2009 
L 1997 1497 
L 313 1497 
L 313 2009 
z
" transform="scale(0.015625)"/>
      <path id="DejaVuSans-52" d="M 2841 2188 
Q 3044 2119 3236 1894 
Q 3428 1669 3622 1275 
L 4263 0 
L 3584 0 
L 2988 1197 
Q 2756 1666 2539 1819 
Q 2322 1972 1947 1972 
L 1259 1972 
L 1259 0 
L 628 0 
L 628 4666 
L 2053 4666 
Q 2853 4666 3247 4331 
Q 3641 3997 3641 3322 
Q 3641 2881 3436 2590 
Q 3231 2300 2841 2188 
z
M 1259 4147 
L 1259 2491 
L 2053 2491 
Q 2509 2491 2742 2702 
Q 2975 2913 2975 3322 
Q 2975 3731 2742 3939 
Q 2509 4147 2053 4147 
L 1259 4147 
z
" transform="scale(0.015625)"/>
     </defs>
     <use xlink:href="#DejaVuSans-61"/>
     <use xlink:href="#DejaVuSans-63" x="61.279297"/>
     <use xlink:href="#DejaVuSans-73" x="116.259766"/>
     <use xlink:href="#DejaVuSans-20" x="168.359375"/>
     <use xlink:href="#DejaVuSans-2d" x="200.146484"/>
     <use xlink:href="#DejaVuSans-20" x="236.230469"/>
     <use xlink:href="#DejaVuSans-4d" x="268.017578"/>
     <use xlink:href="#DejaVuSans-6f" x="354.296875"/>
     <use xlink:href="#DejaVuSans-64" x="415.478516"/>
     <use xlink:href="#DejaVuSans-65" x="478.955078"/>
     <use xlink:href="#DejaVuSans-6c" x="540.478516"/>
     <use xlink:href="#DejaVuSans-20" x="568.261719"/>
     <use xlink:href="#DejaVuSans-50" x="600.048828"/>
     <use xlink:href="#DejaVuSans-65" x="656.726562"/>
     <use xlink:href="#DejaVuSans-72" x="718.25"/>
     <use xlink:href="#DejaVuSans-66" x="759.363281"/>
     <use xlink:href="#DejaVuSans-6f" x="794.568359"/>
     <use xlink:href="#DejaVuSans-72" x="855.75"/>
     <use xlink:href="#DejaVuSans-6d" x="895.113281"/>
     <use xlink:href="#DejaVuSans-61" x="992.525391"/>
     <use xlink:href="#DejaVuSans-6e" x="1053.804688"/>
     <use xlink:href="#DejaVuSans-63" x="1117.183594"/>
     <use xlink:href="#DejaVuSans-65" x="1172.164062"/>
     <use xlink:href="#DejaVuSans-20" x="1233.6875"/>
     <use xlink:href="#DejaVuSans-52" x="1265.474609"/>
     <use xlink:href="#DejaVuSans-61" x="1332.707031"/>
     <use xlink:href="#DejaVuSans-64" x="1393.986328"/>
     <use xlink:href="#DejaVuSans-61" x="1457.462891"/>
     <use xlink:href="#DejaVuSans-72" x="1518.742188"/>
    </g>
   </g>
   <g id="legend_1">
    <g id="patch_9">
     <path d="M 622.291095 91.250469 
L 742.727345 91.250469 
Q 744.927345 91.250469 744.927345 89.050469 
L 744.927345 9.420781 
Q 744.927345 7.220781 742.727345 7.220781 
L 622.291095 7.220781 
Q 620.091095 7.220781 620.091095 9.420781 
L 620.091095 89.050469 
Q 620.091095 91.250469 622.291095 91.250469 
z
" style="fill: #ffffff; opacity: 0.8; stroke: #cccccc; stroke-linejoin: miter"/>
    </g>
    <g id="line2d_16">
     <path d="M 624.491095 16.129062 
L 635.491095 16.129062 
L 646.491095 16.129062 
" style="fill: none; stroke: #440154; stroke-width: 2; stroke-linecap: square"/>
    </g>
    <g id="text_12">
     <!-- DECIMER -->
     <g transform="translate(655.291095 19.979062) scale(0.11 -0.11)">
      <defs>
       <path id="DejaVuSans-44" d="M 1259 4147 
L 1259 519 
L 2022 519 
Q 2988 519 3436 956 
Q 3884 1394 3884 2338 
Q 3884 3275 3436 3711 
Q 2988 4147 2022 4147 
L 1259 4147 
z
M 628 4666 
L 1925 4666 
Q 3281 4666 3915 4102 
Q 4550 3538 4550 2338 
Q 4550 1131 3912 565 
Q 3275 0 1925 0 
L 628 0 
L 628 4666 
z
" transform="scale(0.015625)"/>
       <path id="DejaVuSans-45" d="M 628 4666 
L 3578 4666 
L 3578 4134 
L 1259 4134 
L 1259 2753 
L 3481 2753 
L 3481 2222 
L 1259 2222 
L 1259 531 
L 3634 531 
L 3634 0 
L 628 0 
L 628 4666 
z
" transform="scale(0.015625)"/>
       <path id="DejaVuSans-43" d="M 4122 4306 
L 4122 3641 
Q 3803 3938 3442 4084 
Q 3081 4231 2675 4231 
Q 1875 4231 1450 3742 
Q 1025 3253 1025 2328 
Q 1025 1406 1450 917 
Q 1875 428 2675 428 
Q 3081 428 3442 575 
Q 3803 722 4122 1019 
L 4122 359 
Q 3791 134 3420 21 
Q 3050 -91 2638 -91 
Q 1578 -91 968 557 
Q 359 1206 359 2328 
Q 359 3453 968 4101 
Q 1578 4750 2638 4750 
Q 3056 4750 3426 4639 
Q 3797 4528 4122 4306 
z
" transform="scale(0.015625)"/>
      </defs>
      <use xlink:href="#DejaVuSans-44"/>
      <use xlink:href="#DejaVuSans-45" x="77.001953"/>
      <use xlink:href="#DejaVuSans-43" x="140.185547"/>
      <use xlink:href="#DejaVuSans-49" x="210.009766"/>
      <use xlink:href="#DejaVuSans-4d" x="239.501953"/>
      <use xlink:href="#DejaVuSans-45" x="325.78125"/>
      <use xlink:href="#DejaVuSans-52" x="388.964844"/>
     </g>
    </g>
    <g id="line2d_17">
     <path d="M 624.491095 32.275 
L 635.491095 32.275 
L 646.491095 32.275 
" style="fill: none; stroke: #3b528b; stroke-width: 2; stroke-linecap: square"/>
    </g>
    <g id="text_13">
     <!-- Image2InChI -->
     <g transform="translate(655.291095 36.125) scale(0.11 -0.11)">
      <defs>
       <path id="DejaVuSans-67" d="M 2906 1791 
Q 2906 2416 2648 2759 
Q 2391 3103 1925 3103 
Q 1463 3103 1205 2759 
Q 947 2416 947 1791 
Q 947 1169 1205 825 
Q 1463 481 1925 481 
Q 2391 481 2648 825 
Q 2906 1169 2906 1791 
z
M 3481 434 
Q 3481 -459 3084 -895 
Q 2688 -1331 1869 -1331 
Q 1566 -1331 1297 -1286 
Q 1028 -1241 775 -1147 
L 775 -588 
Q 1028 -725 1275 -790 
Q 1522 -856 1778 -856 
Q 2344 -856 2625 -561 
Q 2906 -266 2906 331 
L 2906 616 
Q 2728 306 2450 153 
Q 2172 0 1784 0 
Q 1141 0 747 490 
Q 353 981 353 1791 
Q 353 2603 747 3093 
Q 1141 3584 1784 3584 
Q 2172 3584 2450 3431 
Q 2728 3278 2906 2969 
L 2906 3500 
L 3481 3500 
L 3481 434 
z
" transform="scale(0.015625)"/>
      </defs>
      <use xlink:href="#DejaVuSans-49"/>
      <use xlink:href="#DejaVuSans-6d" x="29.492188"/>
      <use xlink:href="#DejaVuSans-61" x="126.904297"/>
      <use xlink:href="#DejaVuSans-67" x="188.183594"/>
      <use xlink:href="#DejaVuSans-65" x="251.660156"/>
      <use xlink:href="#DejaVuSans-32" x="313.183594"/>
      <use xlink:href="#DejaVuSans-49" x="376.806641"/>
      <use xlink:href="#DejaVuSans-6e" x="406.298828"/>
      <use xlink:href="#DejaVuSans-43" x="469.677734"/>
      <use xlink:href="#DejaVuSans-68" x="539.501953"/>
      <use xlink:href="#DejaVuSans-49" x="602.880859"/>
     </g>
    </g>
    <g id="line2d_18">
     <path d="M 624.491095 48.420937 
L 635.491095 48.420937 
L 646.491095 48.420937 
" style="fill: none; stroke: #21918c; stroke-width: 2; stroke-linecap: square"/>
    </g>
    <g id="text_14">
     <!-- MolScribe -->
     <g transform="translate(655.291095 52.270937) scale(0.11 -0.11)">
      <defs>
       <path id="DejaVuSans-62" d="M 3116 1747 
Q 3116 2381 2855 2742 
Q 2594 3103 2138 3103 
Q 1681 3103 1420 2742 
Q 1159 2381 1159 1747 
Q 1159 1113 1420 752 
Q 1681 391 2138 391 
Q 2594 391 2855 752 
Q 3116 1113 3116 1747 
z
M 1159 2969 
Q 1341 3281 1617 3432 
Q 1894 3584 2278 3584 
Q 2916 3584 3314 3078 
Q 3713 2572 3713 1747 
Q 3713 922 3314 415 
Q 2916 -91 2278 -91 
Q 1894 -91 1617 61 
Q 1341 213 1159 525 
L 1159 0 
L 581 0 
L 581 4863 
L 1159 4863 
L 1159 2969 
z
" transform="scale(0.015625)"/>
      </defs>
      <use xlink:href="#DejaVuSans-4d"/>
      <use xlink:href="#DejaVuSans-6f" x="86.279297"/>
      <use xlink:href="#DejaVuSans-6c" x="147.460938"/>
      <use xlink:href="#DejaVuSans-53" x="175.244141"/>
      <use xlink:href="#DejaVuSans-63" x="238.720703"/>
      <use xlink:href="#DejaVuSans-72" x="293.701172"/>
      <use xlink:href="#DejaVuSans-69" x="334.814453"/>
      <use xlink:href="#DejaVuSans-62" x="362.597656"/>
      <use xlink:href="#DejaVuSans-65" x="426.074219"/>
     </g>
    </g>
    <g id="line2d_19">
     <path d="M 624.491095 64.566875 
L 635.491095 64.566875 
L 646.491095 64.566875 
" style="fill: none; stroke: #5ec962; stroke-width: 2; stroke-linecap: square"/>
    </g>
    <g id="text_15">
     <!-- MolScribe-P450 -->
     <g transform="translate(655.291095 68.416875) scale(0.11 -0.11)">
      <defs>
       <path id="DejaVuSans-35" d="M 691 4666 
L 3169 4666 
L 3169 4134 
L 1269 4134 
L 1269 2991 
Q 1406 3038 1543 3061 
Q 1681 3084 1819 3084 
Q 2600 3084 3056 2656 
Q 3513 2228 3513 1497 
Q 3513 744 3044 326 
Q 2575 -91 1722 -91 
Q 1428 -91 1123 -41 
Q 819 9 494 109 
L 494 744 
Q 775 591 1075 516 
Q 1375 441 1709 441 
Q 2250 441 2565 725 
Q 2881 1009 2881 1497 
Q 2881 1984 2565 2268 
Q 2250 2553 1709 2553 
Q 1456 2553 1204 2497 
Q 953 2441 691 2322 
L 691 4666 
z
" transform="scale(0.015625)"/>
      </defs>
      <use xlink:href="#DejaVuSans-4d"/>
      <use xlink:href="#DejaVuSans-6f" x="86.279297"/>
      <use xlink:href="#DejaVuSans-6c" x="147.460938"/>
      <use xlink:href="#DejaVuSans-53" x="175.244141"/>
      <use xlink:href="#DejaVuSans-63" x="238.720703"/>
      <use xlink:href="#DejaVuSans-72" x="293.701172"/>
      <use xlink:href="#DejaVuSans-69" x="334.814453"/>
      <use xlink:href="#DejaVuSans-62" x="362.597656"/>
      <use xlink:href="#DejaVuSans-65" x="426.074219"/>
      <use xlink:href="#DejaVuSans-2d" x="487.597656"/>
      <use xlink:href="#DejaVuSans-50" x="523.681641"/>
      <use xlink:href="#DejaVuSans-34" x="583.984375"/>
      <use xlink:href="#DejaVuSans-35" x="647.607422"/>
      <use xlink:href="#DejaVuSans-30" x="711.230469"/>
     </g>
    </g>
    <g id="line2d_20">
     <path d="M 624.491095 80.712812 
L 635.491095 80.712812 
L 646.491095 80.712812 
" style="fill: none; stroke: #fde725; stroke-width: 2; stroke-linecap: square"/>
    </g>
    <g id="text_16">
     <!-- Oracle -->
     <g transform="translate(655.291095 84.562812) scale(0.11 -0.11)">
      <defs>
       <path id="DejaVuSans-4f" d="M 2522 4238 
Q 1834 4238 1429 3725 
Q 1025 3213 1025 2328 
Q 1025 1447 1429 934 
Q 1834 422 2522 422 
Q 3209 422 3611 934 
Q 4013 1447 4013 2328 
Q 4013 3213 3611 3725 
Q 3209 4238 2522 4238 
z
M 2522 4750 
Q 3503 4750 4090 4092 
Q 4678 3434 4678 2328 
Q 4678 1225 4090 567 
Q 3503 -91 2522 -91 
Q 1538 -91 948 565 
Q 359 1222 359 2328 
Q 359 3434 948 4092 
Q 1538 4750 2522 4750 
z
" transform="scale(0.015625)"/>
      </defs>
      <use xlink:href="#DejaVuSans-4f"/>
      <use xlink:href="#DejaVuSans-72" x="78.710938"/>
      <use xlink:href="#DejaVuSans-61" x="119.824219"/>
      <use xlink:href="#DejaVuSans-63" x="181.103516"/>
      <use xlink:href="#DejaVuSans-6c" x="236.083984"/>
      <use xlink:href="#DejaVuSans-65" x="263.867188"/>
     </g>
    </g>
   </g>
  </g>
 </g>
 <defs>
  <clipPath id="paeeb3e0106">
   <path d="M 584.107345 334.360781 
C 584.107345 297.959211 576.937029 261.9116 563.006751 228.280934 
C 549.076474 194.650268 528.657142 164.090579 502.917345 138.350782 
C 477.177547 112.610984 446.617858 92.191653 412.987192 78.261375 
C 379.356527 64.331097 343.308916 57.160781 306.907345 57.160781 
C 270.505775 57.160781 234.458164 64.331097 200.827498 78.261375 
C 167.196832 92.191653 136.637143 112.610984 110.897345 138.350782 
C 85.157548 164.090579 64.738217 194.650268 50.807939 228.280934 
C 36.877661 261.9116 29.707345 297.959211 29.707345 334.360781 
C 29.707345 370.762352 36.877661 406.809963 50.807939 440.440629 
C 64.738217 474.071295 85.157548 504.630984 110.897345 530.370781 
C 136.637143 556.110578 167.196832 576.52991 200.827498 590.460188 
C 234.458164 604.390466 270.505775 611.560781 306.907345 611.560781 
C 343.308916 611.560781 379.356527 604.390466 412.987192 590.460188 
C 446.617858 576.52991 477.177547 556.110578 502.917345 530.370781 
C 528.657142 504.630984 549.076474 474.071295 563.006751 440.440629 
C 576.937029 406.809963 584.107345 370.762352 584.107345 334.360781 
M 306.907345 334.360781 
C 306.907345 334.360781 306.907345 334.360781 306.907345 334.360781 
C 306.907345 334.360781 306.907345 334.360781 306.907345 334.360781 
C 306.907345 334.360781 306.907345 334.360781 306.907345 334.360781 
C 306.907345 334.360781 306.907345 334.360781 306.907345 334.360781 
C 306.907345 334.360781 306.907345 334.360781 306.907345 334.360781 
C 306.907345 334.360781 306.907345 334.360781 306.907345 334.360781 
C 306.907345 334.360781 306.907345 334.360781 306.907345 334.360781 
C 306.907345 334.360781 306.907345 334.360781 306.907345 334.360781 
C 306.907345 334.360781 306.907345 334.360781 306.907345 334.360781 
C 306.907345 334.360781 306.907345 334.360781 306.907345 334.360781 
C 306.907345 334.360781 306.907345 334.360781 306.907345 334.360781 
C 306.907345 334.360781 306.907345 334.360781 306.907345 334.360781 
C 306.907345 334.360781 306.907345 334.360781 306.907345 334.360781 
C 306.907345 334.360781 306.907345 334.360781 306.907345 334.360781 
C 306.907345 334.360781 306.907345 334.360781 306.907345 334.360781 
C 306.907345 334.360781 306.907345 334.360781 306.907345 334.360781 
z
"/>
  </clipPath>
 </defs>
</svg>
